HIERARCHY
ROOT mixamorig:Hips
{
	OFFSET -0.000008 104.274872 1.554316
	CHANNELS 6 Xposition Yposition Zposition Xrotation Yrotation Zrotation
	JOINT mixamorig:Spine
	{
		OFFSET -0.000005 10.181595 0.131519
		CHANNELS 6 Xposition Yposition Zposition Xrotation Yrotation Zrotation
		JOINT mixamorig:Spine1
		{
			OFFSET -0.000000 9.893959 -1.470707
			CHANNELS 6 Xposition Yposition Zposition Xrotation Yrotation Zrotation
			JOINT mixamorig:Spine2
			{
				OFFSET -0.000000 9.220757 -1.370641
				CHANNELS 6 Xposition Yposition Zposition Xrotation Yrotation Zrotation
				JOINT mixamorig:Neck
				{
					OFFSET 0.000001 16.740417 -2.049036
					CHANNELS 6 Xposition Yposition Zposition Xrotation Yrotation Zrotation
					JOINT mixamorig:Head
					{
						OFFSET 0.000000 9.617874 1.685006
						CHANNELS 6 Xposition Yposition Zposition Xrotation Yrotation Zrotation
						JOINT mixamorig:HeadTop_End
						{
							OFFSET 0.000002 22.037354 7.501101
							CHANNELS 6 Xposition Yposition Zposition Xrotation Yrotation Zrotation
							End Site
							{
								OFFSET 0.000168 2310.654297 -282.823242
							}
						}
					}
				}
				JOINT mixamorig:RightShoulder
				{
					OFFSET -4.569970 11.014908 -2.160885
					CHANNELS 6 Xposition Yposition Zposition Xrotation Yrotation Zrotation
					JOINT mixamorig:RightArm
					{
						OFFSET -10.592851 -0.524811 -2.232101
						CHANNELS 6 Xposition Yposition Zposition Xrotation Yrotation Zrotation
						JOINT mixamorig:RightForeArm
						{
							OFFSET -27.841511 0.000031 -0.000004
							CHANNELS 6 Xposition Yposition Zposition Xrotation Yrotation Zrotation
							JOINT mixamorig:RightHand
							{
								OFFSET -28.328831 -0.000015 0.000015
								CHANNELS 6 Xposition Yposition Zposition Xrotation Yrotation Zrotation
								JOINT mixamorig:RightHandThumb1
								{
									OFFSET -2.464806 -1.573990 2.681852
									CHANNELS 6 Xposition Yposition Zposition Xrotation Yrotation Zrotation
									JOINT mixamorig:RightHandThumb2
									{
										OFFSET -3.215179 -1.872803 1.924282
										CHANNELS 6 Xposition Yposition Zposition Xrotation Yrotation Zrotation
										JOINT mixamorig:RightHandThumb3
										{
											OFFSET -2.654831 -1.527969 1.512609
											CHANNELS 6 Xposition Yposition Zposition Xrotation Yrotation Zrotation
											JOINT mixamorig:RightHandThumb4
											{
												OFFSET -2.018814 -1.152008 1.108052
												CHANNELS 6 Xposition Yposition Zposition Xrotation Yrotation Zrotation
												End Site
												{
													OFFSET -188.809540 -114.533607 132.431396
												}
											}
										}
									}
								}
								JOINT mixamorig:RightHandIndex1
								{
									OFFSET -9.108284 -0.517868 2.259835
									CHANNELS 6 Xposition Yposition Zposition Xrotation Yrotation Zrotation
									JOINT mixamorig:RightHandIndex2
									{
										OFFSET -3.699989 0.000000 0.001215
										CHANNELS 6 Xposition Yposition Zposition Xrotation Yrotation Zrotation
										JOINT mixamorig:RightHandIndex3
										{
											OFFSET -2.850006 0.000031 -0.000522
											CHANNELS 6 Xposition Yposition Zposition Xrotation Yrotation Zrotation
											JOINT mixamorig:RightHandIndex4
											{
												OFFSET -2.772186 -0.000015 -0.000020
												CHANNELS 6 Xposition Yposition Zposition Xrotation Yrotation Zrotation
												End Site
												{
													OFFSET -277.218445 0.000000 -0.050231
												}
											}
										}
									}
								}
								JOINT mixamorig:RightHandMiddle1
								{
									OFFSET -9.532516 -0.000031 -0.000023
									CHANNELS 6 Xposition Yposition Zposition Xrotation Yrotation Zrotation
									JOINT mixamorig:RightHandMiddle2
									{
										OFFSET -3.700005 -0.000015 0.003713
										CHANNELS 6 Xposition Yposition Zposition Xrotation Yrotation Zrotation
										JOINT mixamorig:RightHandMiddle3
										{
											OFFSET -2.949974 0.000015 -0.002054
											CHANNELS 6 Xposition Yposition Zposition Xrotation Yrotation Zrotation
											JOINT mixamorig:RightHandMiddle4
											{
												OFFSET -2.946640 0.000000 -0.000156
												CHANNELS 6 Xposition Yposition Zposition Xrotation Yrotation Zrotation
												End Site
												{
													OFFSET -294.664337 0.000000 -0.113670
												}
											}
										}
									}
								}
								JOINT mixamorig:RightHandRing1
								{
									OFFSET -9.103600 -0.043076 -1.865134
									CHANNELS 6 Xposition Yposition Zposition Xrotation Yrotation Zrotation
									JOINT mixamorig:RightHandRing2
									{
										OFFSET -3.379288 0.000000 -0.001055
										CHANNELS 6 Xposition Yposition Zposition Xrotation Yrotation Zrotation
										JOINT mixamorig:RightHandRing3
										{
											OFFSET -2.889687 -0.000015 0.000379
											CHANNELS 6 Xposition Yposition Zposition Xrotation Yrotation Zrotation
											JOINT mixamorig:RightHandRing4
											{
												OFFSET -2.638809 -0.000015 0.000941
												CHANNELS 6 Xposition Yposition Zposition Xrotation Yrotation Zrotation
												End Site
												{
													OFFSET -263.880371 0.000000 0.516020
												}
											}
										}
									}
								}
								JOINT mixamorig:RightHandPinky1
								{
									OFFSET -8.076683 -0.486710 -3.806280
									CHANNELS 6 Xposition Yposition Zposition Xrotation Yrotation Zrotation
									JOINT mixamorig:RightHandPinky2
									{
										OFFSET -3.600014 -0.000015 -0.003747
										CHANNELS 6 Xposition Yposition Zposition Xrotation Yrotation Zrotation
										JOINT mixamorig:RightHandPinky3
										{
											OFFSET -2.099983 0.000000 -0.005739
											CHANNELS 6 Xposition Yposition Zposition Xrotation Yrotation Zrotation
											JOINT mixamorig:RightHandPinky4
											{
												OFFSET -2.115768 -0.000031 -0.003680
												CHANNELS 6 Xposition Yposition Zposition Xrotation Yrotation Zrotation
												End Site
												{
													OFFSET -211.577087 0.000000 -0.350686
												}
											}
										}
									}
								}
							}
						}
					}
				}
				JOINT mixamorig:LeftShoulder
				{
					OFFSET 4.570447 11.014725 -2.160855
					CHANNELS 6 Xposition Yposition Zposition Xrotation Yrotation Zrotation
					JOINT mixamorig:LeftArm
					{
						OFFSET 10.592371 -0.524597 -2.232119
						CHANNELS 6 Xposition Yposition Zposition Xrotation Yrotation Zrotation
						JOINT mixamorig:LeftForeArm
						{
							OFFSET 27.841532 -0.000031 0.000026
							CHANNELS 6 Xposition Yposition Zposition Xrotation Yrotation Zrotation
							JOINT mixamorig:LeftHand
							{
								OFFSET 28.328846 -0.000061 0.000022
								CHANNELS 6 Xposition Yposition Zposition Xrotation Yrotation Zrotation
								JOINT mixamorig:LeftHandThumb1
								{
									OFFSET 2.466141 -1.576172 2.681732
									CHANNELS 6 Xposition Yposition Zposition Xrotation Yrotation Zrotation
									JOINT mixamorig:LeftHandThumb2
									{
										OFFSET 3.217812 -1.872070 1.916482
										CHANNELS 6 Xposition Yposition Zposition Xrotation Yrotation Zrotation
										JOINT mixamorig:LeftHandThumb3
										{
											OFFSET 2.656029 -1.528778 1.514513
											CHANNELS 6 Xposition Yposition Zposition Xrotation Yrotation Zrotation
											JOINT mixamorig:LeftHandThumb4
											{
												OFFSET 2.020889 -1.154053 1.115139
												CHANNELS 6 Xposition Yposition Zposition Xrotation Yrotation Zrotation
												End Site
												{
													OFFSET 190.885437 -115.081749 130.048782
												}
											}
										}
									}
								}
								JOINT mixamorig:LeftHandIndex1
								{
									OFFSET 9.109314 -0.518021 2.259871
									CHANNELS 6 Xposition Yposition Zposition Xrotation Yrotation Zrotation
									JOINT mixamorig:LeftHandIndex2
									{
										OFFSET 3.699989 0.000000 -0.000322
										CHANNELS 6 Xposition Yposition Zposition Xrotation Yrotation Zrotation
										JOINT mixamorig:LeftHandIndex3
										{
											OFFSET 2.850006 0.000000 0.000352
											CHANNELS 6 Xposition Yposition Zposition Xrotation Yrotation Zrotation
											JOINT mixamorig:LeftHandIndex4
											{
												OFFSET 2.774864 -0.000031 -0.000027
												CHANNELS 6 Xposition Yposition Zposition Xrotation Yrotation Zrotation
												End Site
												{
													OFFSET 277.486267 0.000000 -0.009857
												}
											}
										}
									}
								}
								JOINT mixamorig:LeftHandMiddle1
								{
									OFFSET 9.533394 0.000061 0.000044
									CHANNELS 6 Xposition Yposition Zposition Xrotation Yrotation Zrotation
									JOINT mixamorig:LeftHandMiddle2
									{
										OFFSET 3.699989 -0.000015 -0.000231
										CHANNELS 6 Xposition Yposition Zposition Xrotation Yrotation Zrotation
										JOINT mixamorig:LeftHandMiddle3
										{
											OFFSET 2.949997 -0.000015 -0.000059
											CHANNELS 6 Xposition Yposition Zposition Xrotation Yrotation Zrotation
											JOINT mixamorig:LeftHandMiddle4
											{
												OFFSET 2.952896 0.000031 0.000063
												CHANNELS 6 Xposition Yposition Zposition Xrotation Yrotation Zrotation
												End Site
												{
													OFFSET 295.289337 0.000000 0.022810
												}
											}
										}
									}
								}
								JOINT mixamorig:LeftHandRing1
								{
									OFFSET 9.104523 -0.042999 -1.865074
									CHANNELS 6 Xposition Yposition Zposition Xrotation Yrotation Zrotation
									JOINT mixamorig:LeftHandRing2
									{
										OFFSET 3.150009 -0.000031 0.000043
										CHANNELS 6 Xposition Yposition Zposition Xrotation Yrotation Zrotation
										JOINT mixamorig:LeftHandRing3
										{
											OFFSET 2.949982 -0.000015 0.000040
											CHANNELS 6 Xposition Yposition Zposition Xrotation Yrotation Zrotation
											JOINT mixamorig:LeftHandRing4
											{
												OFFSET 2.644348 0.000000 0.000057
												CHANNELS 6 Xposition Yposition Zposition Xrotation Yrotation Zrotation
												End Site
												{
													OFFSET 264.434631 0.000000 0.012105
												}
											}
										}
									}
								}
								JOINT mixamorig:LeftHandPinky1
								{
									OFFSET 8.077789 -0.486847 -3.806259
									CHANNELS 6 Xposition Yposition Zposition Xrotation Yrotation Zrotation
									JOINT mixamorig:LeftHandPinky2
									{
										OFFSET 3.599953 0.000031 0.014727
										CHANNELS 6 Xposition Yposition Zposition Xrotation Yrotation Zrotation
										JOINT mixamorig:LeftHandPinky3
										{
											OFFSET 2.100021 0.000015 0.007705
											CHANNELS 6 Xposition Yposition Zposition Xrotation Yrotation Zrotation
											JOINT mixamorig:LeftHandPinky4
											{
												OFFSET 2.125504 0.000031 0.007517
												CHANNELS 6 Xposition Yposition Zposition Xrotation Yrotation Zrotation
												End Site
												{
													OFFSET 212.550781 0.000000 0.625752
												}
											}
										}
									}
								}
							}
						}
					}
				}
			}
		}
	}
	JOINT mixamorig:RightUpLeg
	{
		OFFSET -8.207787 -6.751648 -1.599560
		CHANNELS 6 Xposition Yposition Zposition Xrotation Yrotation Zrotation
		JOINT mixamorig:RightLeg
		{
			OFFSET -0.000002 -44.370117 0.345942
			CHANNELS 6 Xposition Yposition Zposition Xrotation Yrotation Zrotation
			JOINT mixamorig:RightFoot
			{
				OFFSET 0.000003 -44.423679 -3.043532
				CHANNELS 6 Xposition Yposition Zposition Xrotation Yrotation Zrotation
				JOINT mixamorig:RightToeBase
				{
					OFFSET -0.000002 -8.728671 10.710558
					CHANNELS 6 Xposition Yposition Zposition Xrotation Yrotation Zrotation
					JOINT mixamorig:RightToe_End
					{
						OFFSET -0.000001 -0.000679 9.278119
						CHANNELS 6 Xposition Yposition Zposition Xrotation Yrotation Zrotation
						End Site
						{
							OFFSET 0.000000 -0.067690 927.812134
						}
					}
				}
			}
		}
	}
	JOINT mixamorig:LeftUpLeg
	{
		OFFSET 8.207793 -6.751686 -1.599556
		CHANNELS 6 Xposition Yposition Zposition Xrotation Yrotation Zrotation
		JOINT mixamorig:LeftLeg
		{
			OFFSET -0.000004 -44.370014 0.346954
			CHANNELS 6 Xposition Yposition Zposition Xrotation Yrotation Zrotation
			JOINT mixamorig:LeftFoot
			{
				OFFSET -0.000001 -44.423672 -3.044401
				CHANNELS 6 Xposition Yposition Zposition Xrotation Yrotation Zrotation
				JOINT mixamorig:LeftToeBase
				{
					OFFSET -0.000002 -8.728669 10.710558
					CHANNELS 6 Xposition Yposition Zposition Xrotation Yrotation Zrotation
					JOINT mixamorig:LeftToe_End
					{
						OFFSET -0.000003 -0.000679 9.278133
						CHANNELS 6 Xposition Yposition Zposition Xrotation Yrotation Zrotation
						End Site
						{
							OFFSET 0.000000 -0.068021 927.813477
						}
					}
				}
			}
		}
	}
}
MOTION
Frames: 3
Frame Time: 0.033333
0.000006 104.270477 1.554256 0.000010 0.000003 -0.000113 -0.000005 10.181587 0.131522 0.000001 -0.000003 0.000084 -0.000000 9.893967 -1.470711 0.000001 0.000000 -0.000000 -0.000000 9.220802 -1.370642 0.000000 -0.000000 -0.000000 0.000001 16.740433 -2.049030 0.000000 -0.000000 -0.000000 0.000000 9.617859 1.685014 0.000000 0.000000 0.000000 0.000002 22.037384 7.501101 0.000000 -0.000000 0.000000 -4.569968 11.014880 -2.160881 0.000008 0.000001 -0.000038 -10.592875 -0.524771 -2.231898 74.166654 30.919618 -23.614332 -27.841518 0.000011 0.000565 -48.526971 108.312723 63.926507 -28.328817 0.000005 0.000029 -0.000321 -0.000041 0.000008 -2.464426 -1.573764 2.682336 -48.777929 -166.771144 -12.183131 -3.215262 -1.872525 1.924634 151.715044 32.980142 16.063714 -2.654946 -1.527875 1.513072 148.702302 26.818726 -34.980889 -2.018830 -1.151987 1.108059 0.000000 -0.000002 0.000000 -9.108368 -0.517552 2.260157 104.379996 15.971165 -20.555070 -3.700068 0.000304 0.001537 100.719172 13.558716 -16.303072 -2.850097 0.000379 -0.000248 98.977617 10.760370 -12.579078 -2.772175 -0.000015 -0.000021 -0.000000 -0.000001 -0.000001 -9.532581 0.000262 0.000263 94.484315 17.117127 -18.644004 -3.700060 0.000332 0.003958 91.490821 12.931847 -13.171774 -2.950065 0.000345 -0.001808 90.675194 11.014588 -11.137204 -2.946629 0.000029 -0.000158 0.000002 0.000000 -0.000001 -9.103708 -0.042787 -1.864869 87.940776 19.372257 -18.656503 -3.379354 0.000304 -0.000827 88.006031 11.100909 -10.740465 -2.889750 0.000366 0.000624 91.938356 6.526455 -6.797381 -2.638815 -0.000028 0.000938 0.000002 0.000000 -0.000004 -8.076740 -0.486393 -3.806056 74.461602 18.023623 -13.626073 -3.600031 0.000265 -0.003578 76.321073 8.327247 -6.267760 -2.100011 0.000311 -0.005563 78.230309 3.943818 -3.032877 -2.115767 -0.000039 -0.003682 0.000000 -0.000002 -0.000004 4.570446 11.014691 -2.160851 -0.000018 0.000010 -0.000021 10.592411 -0.524471 -2.232355 72.983112 -16.564539 12.292146 27.841831 0.000070 -0.000196 106.439762 -70.490995 86.774664 28.328817 -0.000028 0.000022 0.000023 -0.000088 -0.000000 2.466235 -1.576041 2.681828 1.072963 171.168871 -96.861836 3.217866 -1.871809 1.916396 159.464536 -24.292918 34.676283 2.656102 -1.528652 1.514479 140.021419 -27.556226 51.946631 2.020891 -1.154071 1.115154 -0.000002 0.000004 0.000006 9.109365 -0.517889 2.259746 71.731883 -19.474191 14.134697 3.700054 0.000101 -0.000460 68.284611 -18.657294 12.725147 2.850040 0.000131 0.000215 64.600715 -15.743241 9.989427 2.774881 -0.000034 -0.000027 0.000003 -0.000003 -0.000001 9.533438 0.000151 -0.000088 63.554029 -19.108550 11.899219 3.700052 0.000105 -0.000376 67.075661 -17.883797 11.906205 2.950047 0.000108 -0.000181 67.435025 -18.627514 12.494329 2.952864 -0.000033 0.000064 -0.000000 0.000003 0.000001 9.104572 -0.042900 -1.865206 63.326195 -18.301190 11.347776 3.150046 0.000129 -0.000072 67.809592 -16.069492 10.840435 2.950008 0.000100 -0.000074 68.696315 -15.365774 10.535654 2.644320 0.000044 0.000055 0.000000 -0.000001 -0.000001 8.077831 -0.486766 -3.806388 57.804451 -19.131187 10.983416 3.600005 0.000102 0.014581 55.796857 -16.287954 8.960080 2.100005 0.000099 0.007568 57.576951 -13.876915 7.933965 2.125513 -0.000001 0.007514 0.000000 0.000001 -0.000001 -8.207786 -6.751667 -1.599560 -0.077001 -0.000003 0.000080 -0.000002 -44.370110 0.345938 0.153719 -0.000000 -0.000000 0.000000 -44.423679 -3.043532 -0.076700 0.000000 -0.000002 -0.000006 -8.728667 10.710559 -0.000009 -0.000000 -0.000000 -0.000001 -0.000679 9.278123 0.000000 -0.000000 -0.000000 8.207792 -6.751710 -1.599556 -0.074518 -0.000003 0.000081 -0.000002 -44.370014 0.346960 0.148822 0.000002 0.000000 -0.000001 -44.423664 -3.044403 -0.074314 0.000000 -0.000002 -0.000004 -8.728671 10.710558 0.000007 -0.000000 -0.000000 0.000000 -0.000680 9.278137 -0.000000 0.000000 -0.000001 
0.000006 104.270477 1.554256 0.000010 0.000003 -0.000113 -0.000005 10.181587 0.131522 0.000001 -0.000003 0.000084 -0.000000 9.893967 -1.470711 0.000001 0.000000 -0.000000 -0.000000 9.220802 -1.370642 0.000000 -0.000000 -0.000000 0.000001 16.740433 -2.049030 0.000000 -0.000000 -0.000000 0.000000 9.617859 1.685014 0.000000 0.000000 0.000000 0.000002 22.037384 7.501101 0.000000 -0.000000 0.000000 -4.569968 11.014880 -2.160881 0.000008 0.000001 -0.000038 -10.592873 -0.524766 -2.231896 74.166880 30.455578 -23.252836 -27.841509 0.000009 0.000546 -46.581204 106.713482 60.117590 -28.328817 0.000023 0.000023 -0.000320 -0.000044 0.000005 -2.464409 -1.573759 2.682319 -49.659044 -165.914297 -14.605729 -3.215241 -1.872519 1.924616 147.024644 32.703943 22.994971 -2.654974 -1.527842 1.513049 145.985950 28.227538 -24.134791 -2.018838 -1.152019 1.108060 -0.000003 -0.000002 0.000004 -9.108372 -0.517539 2.260150 103.109130 13.673289 -17.232849 -3.700055 0.000323 0.001513 99.877638 11.745674 -13.920065 -2.850082 0.000376 -0.000251 98.083839 10.339051 -11.899702 -2.772170 -0.000017 -0.000017 -0.000000 -0.000001 -0.000000 -9.532573 0.000267 0.000240 92.799519 15.331652 -16.238104 -3.700060 0.000321 0.003971 92.127982 12.626581 -13.001636 -2.950051 0.000336 -0.001813 93.475742 12.141916 -12.887959 -2.946635 0.000001 -0.000155 -0.000001 0.000000 0.000001 -9.103713 -0.042787 -1.864892 86.928705 19.259674 -18.228146 -3.379343 0.000311 -0.000817 89.100719 12.227601 -12.056190 -2.889769 0.000337 0.000626 95.287689 8.730221 -9.622870 -2.638819 -0.000005 0.000941 0.000003 0.000001 -0.000002 -8.076752 -0.486417 -3.806079 73.533168 20.026256 -14.912523 -3.600063 0.000244 -0.003563 75.530814 11.651068 -8.749713 -2.100028 0.000300 -0.005544 79.142700 6.914295 -5.531240 -2.115757 -0.000056 -0.003680 -0.000000 -0.000001 -0.000005 4.570446 11.014691 -2.160851 -0.000018 0.000010 -0.000021 10.592409 -0.524473 -2.232368 72.299356 -16.396598 12.016684 27.841825 0.000040 -0.000186 109.177726 -72.911709 92.198388 28.328831 -0.000028 0.000021 0.000019 -0.000089 0.000000 2.466251 -1.576051 2.681818 4.290576 172.656199 -102.580364 3.217887 -1.871894 1.916427 159.196642 -20.815063 50.151508 2.656094 -1.528694 1.514486 137.874567 -28.034928 60.111880 2.020898 -1.154085 1.115138 -0.000001 0.000007 0.000006 9.109378 -0.517918 2.259738 71.099271 -22.155952 15.919909 3.700032 0.000100 -0.000458 69.872678 -15.270037 10.711692 2.850034 0.000140 0.000212 69.463147 -12.144645 8.434735 2.774887 -0.000044 -0.000029 0.000002 -0.000003 0.000000 9.533455 0.000138 -0.000074 66.198248 -21.609100 14.176496 3.700037 0.000133 -0.000375 69.368596 -13.813885 9.581833 2.950050 0.000118 -0.000201 69.466323 -13.149332 9.139197 2.952865 -0.000033 0.000057 0.000000 -0.000001 0.000000 9.104588 -0.042906 -1.865218 67.529793 -20.375371 13.703179 3.150027 0.000141 -0.000085 68.343296 -13.796040 9.391536 2.950008 0.000126 -0.000072 69.000886 -10.942466 7.533959 2.644323 0.000031 0.000057 0.000001 -0.000003 -0.000002 8.077847 -0.486773 -3.806399 61.787558 -21.129670 13.121426 3.599989 0.000116 0.014582 58.661462 -17.368044 10.124366 2.100031 0.000106 0.007550 61.086323 -12.964998 7.968575 2.125499 -0.000013 0.007512 0.000003 -0.000003 0.000002 -8.207786 -6.751667 -1.599560 -0.077001 -0.000003 0.000080 -0.000002 -44.370110 0.345938 0.153719 -0.000000 -0.000000 0.000000 -44.423679 -3.043532 -0.076700 0.000000 -0.000002 -0.000006 -8.728667 10.710559 -0.000009 -0.000000 -0.000000 -0.000001 -0.000679 9.278123 0.000000 -0.000000 -0.000000 8.207792 -6.751710 -1.599556 -0.074518 -0.000003 0.000081 -0.000002 -44.370014 0.346960 0.148822 0.000002 0.000000 -0.000001 -44.423664 -3.044403 -0.074314 0.000000 -0.000002 -0.000004 -8.728671 10.710558 0.000007 -0.000000 -0.000000 0.000000 -0.000680 9.278137 -0.000000 0.000000 -0.000001 
0.000006 104.270477 1.554256 0.000010 0.000003 -0.000113 -0.000005 10.181587 0.131522 0.000001 -0.000003 0.000084 -0.000000 9.893967 -1.470711 0.000001 0.000000 -0.000000 -0.000000 9.220802 -1.370642 0.000000 -0.000000 -0.000000 0.000001 16.740433 -2.049030 0.000000 -0.000000 -0.000000 0.000000 9.617859 1.685014 0.000000 0.000000 0.000000 0.000002 22.037384 7.501101 0.000000 -0.000000 0.000000 -4.569968 11.014880 -2.160881 0.000008 0.000001 -0.000038 -10.592864 -0.524798 -2.231847 73.738832 39.327321 -30.005199 -27.841522 0.000010 0.000560 -45.523863 103.865696 56.359596 -28.328835 0.000009 0.000037 -0.000323 -0.000045 0.000009 -2.464426 -1.573736 2.682313 -50.163313 -166.813355 -16.032433 -3.215258 -1.872529 1.924612 147.740325 32.733559 21.558702 -2.654965 -1.527853 1.513051 145.847994 28.033458 -26.650753 -2.018826 -1.151980 1.108063 -0.000003 -0.000001 0.000002 -9.108369 -0.517543 2.260128 102.606312 13.662298 -17.067053 -3.700060 0.000322 0.001526 100.139616 11.745367 -13.983823 -2.850081 0.000392 -0.000250 98.916917 10.301800 -12.031231 -2.772179 -0.000016 -0.000022 -0.000000 -0.000000 0.000000 -9.532600 0.000273 0.000239 92.374087 15.280042 -16.065631 -3.700065 0.000327 0.003953 92.173833 12.434442 -12.812790 -2.950064 0.000319 -0.001815 93.526764 11.900395 -12.642893 -2.946634 0.000002 -0.000155 0.000000 0.000001 0.000000 -9.103702 -0.042762 -1.864880 86.423470 19.138738 -17.956552 -3.379342 0.000304 -0.000816 89.053550 11.697706 -11.524833 -2.889744 0.000359 0.000628 94.975857 8.199314 -8.991782 -2.638813 -0.000000 0.000944 -0.000001 -0.000000 -0.000002 -8.076763 -0.486410 -3.806079 73.443474 19.798837 -14.716773 -3.600057 0.000253 -0.003571 76.145435 11.146956 -8.452279 -2.100017 0.000299 -0.005545 79.347421 6.436921 -5.156266 -2.115778 -0.000028 -0.003679 0.000000 0.000002 -0.000002 4.570446 11.014691 -2.160851 -0.000018 0.000010 -0.000021 10.592452 -0.524469 -2.232397 71.474303 -32.081569 23.377468 27.841824 0.000042 -0.000179 112.462753 -76.398849 99.289804 28.328842 -0.000026 0.000023 0.000018 -0.000092 0.000002 2.466258 -1.575949 2.681797 15.518084 182.328867 -125.708471 3.217870 -1.871891 1.916438 161.264523 -19.664644 51.861927 2.656089 -1.528682 1.514508 137.297362 -28.240110 61.105065 2.020883 -1.154065 1.115142 0.000002 -0.000003 0.000003 9.109373 -0.517915 2.259752 71.463081 -23.398459 16.936513 3.700042 0.000126 -0.000470 70.849265 -14.875409 10.622962 2.850053 0.000142 0.000214 71.084094 -11.875362 8.497718 2.774880 -0.000015 -0.000029 -0.000000 0.000002 -0.000000 9.533449 0.000153 -0.000067 66.855749 -22.847929 15.188292 3.700030 0.000134 -0.000366 70.012943 -13.513380 9.484892 2.950051 0.000116 -0.000193 70.644387 -13.235662 9.401996 2.952858 -0.000016 0.000060 -0.000000 0.000004 -0.000000 9.104584 -0.042916 -1.865216 68.419521 -21.142390 14.463137 3.150036 0.000139 -0.000092 68.763244 -13.477310 9.245699 2.949994 0.000116 -0.000074 69.672697 -11.020354 7.683159 2.644325 0.000016 0.000054 0.000001 -0.000002 0.000000 8.077824 -0.486773 -3.806391 63.595352 -21.586610 13.880829 3.600010 0.000125 0.014590 61.515149 -17.882238 11.030187 2.100016 0.000123 0.007565 63.809444 -13.718831 8.880734 2.125500 -0.000016 0.007514 -0.000002 -0.000003 -0.000001 -8.207786 -6.751667 -1.599560 -0.077001 -0.000003 0.000080 -0.000002 -44.370110 0.345938 0.153719 -0.000000 -0.000000 0.000000 -44.423679 -3.043532 -0.076700 0.000000 -0.000002 -0.000006 -8.728667 10.710559 -0.000009 -0.000000 -0.000000 -0.000001 -0.000679 9.278123 0.000000 -0.000000 -0.000000 8.207792 -6.751710 -1.599556 -0.074518 -0.000003 0.000081 -0.000002 -44.370014 0.346960 0.148822 0.000002 0.000000 -0.000001 -44.423664 -3.044403 -0.074314 0.000000 -0.000002 -0.000004 -8.728671 10.710558 0.000007 -0.000000 -0.000000 0.000000 -0.000680 9.278137 -0.000000 0.000000 -0.000001 
